PathFileType	4	(X/Y/Z)	markers.trc
DataRate	CameraRate	NumFrames	NumMarkers	Units	OrigDataRate	OrigDataStartFrame	OrigNumFrames
200	200	5	29	mm	200	93	185
Frame#	Time	RxCheec			LxCheec			C7			maxkif			RxShould			LxShould			RxElbow			LxElbow			RxWrist			LxWrist			Psis			RxAsis			LxAsis			RxThigh			LxThigh			RxLatCon			LxLatCon			RxFH			LxFH			RxShank			LxShank			RxLatMal			LxLatMal			RxHeel			LxHeel			RxToe1			LxToe1			RxMeta5			LxMeta5			
		X1	Y1	Z1	X2	Y2	Z2	X3	Y3	Z3	X4	Y4	Z4	X5	Y5	Z5	X6	Y6	Z6	X7	Y7	Z7	X8	Y8	Z8	X9	Y9	Z9	X10	Y10	Z10	X11	Y11	Z11	X12	Y12	Z12	X13	Y13	Z13	X14	Y14	Z14	X15	Y15	Z15	X16	Y16	Z16	X17	Y17	Z17	X18	Y18	Z18	X19	Y19	Z19	X20	Y20	Z20	X21	Y21	Z21	X22	Y22	Z22	X23	Y23	Z23	X24	Y24	Z24	X25	Y25	Z25	X26	Y26	Z26	X27	Y27	Z27	X28	Y28	Z28	X29	Y29	Z29

93	2.075	796.4152097702026	1614.7058010101318	259.66721773147583	797.8188991546631	1612.1118068695068	95.46852856874466	662.3575091362	1530.8992862701416	183.76779556274414	579.9693465232849	1313.9015436172485	184.6799999475479	704.0241360664368	1516.5605545043945	331.94002509117126	692.6822662353516	1510.280966758728	23.80424365401268	699.7780799865723	1169.5998907089233	453.9059102535248	540.1652455329895	1195.4340934753418	-39.059922099113464	865.5486106872559	969.7715044021606	468.1607186794281	462.9334509372711	941.9397115707397	-46.720732003450394	613.4535074234009	1000.1848936080933	182.13672935962677	788.2516384124756	991.2363290786743	317.2927796840668	799.2385625839233	985.8385324478149	64.76268917322159	720.5827236175537	640.8249735832214	270.8801329135895	907.3442220687866	682.6635599136353	85.57526767253876	578.8584351539612	493.09858679771423	309.8742365837097	917.3994660377502	493.3132529258728	46.67876660823822	528.6508798599243	450.00672340393066	319.53150033950806	902.4043083190918	437.95228004455566	29.821287840604782	504.9632787704468	320.41022181510925	250.8983016014099	996.9481825828552	320.05733251571655	85.07057279348373	313.39725852012634	130.7462453842163	284.8053276538849	1011.3440752029419	69.47232037782669	66.73906743526459	262.2644007205963	138.32256197929382	233.06243121623993	980.8650612831116	35.21567955613136	128.203883767128	494.0606355667114	26.295147836208344	241.52454733848572	1218.539834022522	118.14092099666595	53.77746745944023	396.17836475372314	23.512650281190872	305.52294850349426	1133.7628364562988	63.281044363975525	19.943736493587494
94	2.08	804.1002154350281	1614.57359790802	258.33332538604736	805.8822751045227	1611.878752708435	94.1852554678917	670.5257892608643	1530.228614807129	182.27316439151764	589.1482830047607	1312.9045963287354	183.55582654476166	711.7894291877747	1516.2858963012695	330.6392729282379	701.2538313865662	1509.3367099761963	22.39830419421196	707.4698805809021	1169.3861484527588	452.8583884239197	548.8170981407166	1194.4478750228882	-40.22575169801712	874.5282292366028	970.6741571426392	467.45938062667847	471.125066280365	941.0909414291382	-47.57510870695114	623.4647035598755	999.8964071273804	181.330606341362	798.1323003768921	990.3550148010254	316.6729509830475	809.5240592956543	985.7071042060852	64.30581212043762	730.3012013435364	639.8000717163086	270.410418510437	917.6009893417358	682.8082799911499	85.69273352622986	588.1574153900146	492.35841631889343	309.5737397670746	926.2152314186096	492.153525352478	47.567225992679596	537.3666882514954	449.80916380882263	319.3133771419525	910.5829000473022	436.8056058883667	30.29809705913067	511.4060044288635	320.4169571399689	251.2992024421692	1003.3794641494751	317.8350627422333	86.60989254713058	316.52966141700745	134.18442010879517	285.9695851802826	1014.3418312072754	68.24373453855515	67.80706346035004	265.78906178474426	143.1124359369278	234.15926098823547	982.9890727996826	35.04329174757004	129.05873358249664	493.8078820705414	26.33134089410305	241.67320132255554	1223.6578464508057	109.57133769989014	55.3060881793499	396.5236246585846	23.830879479646683	305.5799901485443	1135.9121799468994	58.30908194184303	21.150467917323112
95	2.085	811.7700219154358	1614.547610282898	256.98694586753845	813.9470219612122	1611.739993095398	92.89941191673279	678.6933541297913	1529.6666622161865	180.77538907527924	598.3453989028931	1312.0378255844116	182.39521980285645	719.5497751235962	1516.054391860962	329.3715715408325	709.8004817962646	1508.4854364395142	20.980888977646828	715.0552272796631	1169.171690940857	451.8100917339325	557.5717091560364	1193.4617757797241	-41.451457887887955	883.3786845207214	971.5416431427002	466.75387024879456	479.5253574848175	940.2093291282654	-48.472292721271515	633.4457993507385	999.7547268867493	180.55500090122223	808.0887794494629	989.5288944244385	316.02585315704346	819.732129573822	985.6876730918884	63.90082836151123	740.2582168579102	638.7740969657898	269.99393105506897	928.0017018318176	682.5320720672607	85.82617342472076	597.7770090103149	491.55178666114807	309.2343509197235	934.6545338630676	491.1351203918457	48.21540787816048	546.3838577270508	449.58654046058655	319.0821707248688	918.4558391571045	435.8622133731842	30.6220892816782	518.1865692138672	320.44392824172974	251.72582268714905	1009.8823308944702	316.145658493042	88.01724761724472	319.95901465415955	137.7907246351242	287.056565284729	1017.7856683731079	67.67578423023224	68.71417164802551	269.7871923446655	148.12423288822174	235.1122349500656	985.4222536087036	35.710688680410385	129.74058091640472	493.47981810569763	26.34493075311184	241.82963371276855	1229.1476726531982	100.92928260564804	56.48907646536827	396.9837427139282	24.30259995162487	305.57024478912354	1138.298511505127	53.71900275349617	22.097066044807434
96	2.09	819.4359540939331	1614.6578788757324	255.63815236091614	822.0223188400269	1611.7335557937622	91.60955250263214	686.8720650672913	1529.2364358901978	179.2736053466797	607.5603365898132	1311.319351196289	181.20495975017548	727.3040413856506	1515.885591506958	328.1443417072296	718.3213233947754	1507.745623588562	19.550831988453865	722.5421071052551	1168.96390914917	450.7467448711395	566.4440393447876	1192.490816116333	-42.72862151265144	892.0981884002686	972.3767638206482	466.0477340221405	488.1308972835541	939.3082857131958	-49.40492659807205	643.3725357055664	999.7853636741638	179.82956767082214	818.0914521217346	988.7762665748596	315.36000967025757	829.8122882843018	985.7981204986572	63.53725492954254	750.4569292068481	637.7706527709961	269.63794231414795	938.492476940155	681.8927526473999	85.98622679710388	607.7584624290466	490.6635880470276	308.9008331298828	942.7882432937622	490.4087483882904	48.55593666434288	555.7439923286438	449.3485987186432	318.84557008743286	926.1527061462402	435.26527285575867	30.742628499865532	525.372326374054	320.4748332500458	252.1880865097046	1016.4542198181152	315.04306197166443	89.21810984611511	323.76208901405334	141.5558159351349	288.03765773773193	1021.636962890625	67.63188540935516	69.30886209011078	274.34441447257996	153.34860980510712	235.87606847286224	988.1275296211243	37.0267778635025	130.07983565330505	493.06657910346985	26.340676471590996	241.99850857257843	1234.8142862319946	92.67763048410416	57.52084404230118	397.5832760334015	24.94778111577034	305.4804503917694	1141.0518884658813	49.60355535149574	22.841760888695717
97	2.0949999999999998	827.1083831787109	1614.9306297302246	254.2964518070221	830.1137685775757	1611.8953227996826	90.31425416469574	695.0769424438477	1528.950572013855	177.77018249034882	616.7952418327332	1310.7514381408691	179.99812960624695	735.0514531135559	1515.8005952835083	326.9590437412262	726.8186211585999	1507.1309804916382	18.11056397855282	729.9415469169617	1168.7817573547363	449.6549963951111	575.4473209381104	1191.555380821228	-44.04683783650398	900.6762504577637	973.1854796409607	465.3417468070984	496.9426095485687	938.4066462516785	-50.36849528551102	653.227686882019	1000.0008344650269	179.17872965335846	828.1044363975525	988.1144762039185	314.6805763244629	839.7243618965149	986.0532879829407	63.193611800670624	760.901689529419	636.8169784545898	269.34197545051575	948.976993560791	680.9963583946228	86.1702486872673	618.1496977806091	489.6804988384247	308.62751603126526	950.7390260696411	490.0945723056793	48.574525862932205	565.491795539856	449.10869002342224	318.62345337867737	933.8300228118896	435.11196970939636	30.633501708507538	533.0393314361572	320.48818469047546	252.7013123035431	1023.043155670166	314.4758641719818	90.16378223896027	328.02996039390564	145.45594155788422	288.8854146003723	1025.705099105835	67.89307296276093	69.48665529489517	279.5388102531433	158.76127779483795	236.4087700843811	990.9452795982361	38.71995210647583	129.95876371860504	492.57946014404297	26.33628621697426	242.1855479478836	1240.3632402420044	85.14180034399033	58.61637368798256	398.34466576576233	25.775369256734848	305.3014278411865	1144.1599130630493	45.90395465493202	23.464839905500412
